<?xml version="1.0" encoding="UTF-8"?>
<svg version="1.1" xmlns="http://www.w3.org/2000/svg" xmlns:xlink="http://www.w3.org/1999/xlink">
<defs>

</defs>
<symbol id="i-close" viewBox="0 0 32 33" fill="none" xmlns="http://www.w3.org/2000/svg"><path d="M16 29.833c7.333 0 13.333-6 13.333-13.333S23.333 3.167 16 3.167 2.667 9.167 2.667 16.5s6 13.333 13.333 13.333zM12.227 20.273l7.546-7.546M19.773 20.273l-7.546-7.546" stroke="#fff" stroke-width="1.5" stroke-linecap="round" stroke-linejoin="round"/></symbol>
<symbol id="i-logo" viewBox="0 0 26 37" fill="none" xmlns="http://www.w3.org/2000/svg"><path d="M17.803 2.364C19.554 1.584 21.28.742 23.047 0c.168.386 2.778 6.177 2.953 6.56-1.322.603-2.652 1.192-3.966 1.81-.166.063-.05.254-.047.377.417 1.815.396 3.75-.2 5.523-.676 2.012-1.935 3.846-3.632 5.132 1.656 1.112 2.961 2.756 3.627 4.64.521 1.473.61 3.082.343 4.617-.332 1.794-1.205 3.473-2.442 4.811-2.76 3.003-7.25 4.232-11.17 3.134C5.5 35.78 3 33.607 1.376 30.984c-.523-.793-.89-1.671-1.312-2.52.234-.23.562-.301.862-.405 2.057-.704 4.11-1.427 6.168-2.127.519 1.189 1.286 2.313 2.38 3.04a3.604 3.604 0 002.6.566c.843-.115 1.705-.442 2.26-1.113.656-.773.657-1.948.182-2.81-.486-.815-1.367-1.266-2.194-1.663-1.854-.846-3.785-1.53-5.578-2.509-2.036-1.074-3.863-2.605-5.109-4.553a10.348 10.348 0 01-1.598-6.442c.185-2.96 1.665-5.796 3.938-7.693A11.116 11.116 0 0110.288.18c2.66-.21 5.386.574 7.515 2.185zm-7.37 5.27A3.747 3.747 0 007.866 9.52a3.68 3.68 0 00-.039 3.4 3.728 3.728 0 002.502 1.94c1.506.376 3.186-.361 3.978-1.683a3.67 3.67 0 00.127-3.611c-.719-1.432-2.428-2.256-4-1.932z" fill="#292D32"/></symbol>
<symbol id="i-open-2" viewBox="0 0 24 24" fill="none" xmlns="http://www.w3.org/2000/svg"><path d="M11 19v-6H5M11 13l-7 7" stroke="#fff" stroke-width="1.5" stroke-linecap="round" stroke-linejoin="round"/><path d="M3 9.55C3 4 5 3 12 3s9 1 9 9c0 7-1 9-6.68 9" stroke="#fff" stroke-width="1.5" stroke-linecap="round" stroke-linejoin="round"/></symbol>
<symbol id="i-open" viewBox="0 0 24 24" fill="none" xmlns="http://www.w3.org/2000/svg"><path d="M12 22c5.5 0 10-4.5 10-10S17.5 2 12 2 2 6.5 2 12s4.5 10 10 10zM8 12h8M12 16V8" stroke="#fff" stroke-width="1.5" stroke-linecap="round" stroke-linejoin="round"/></symbol>
<symbol id="i-slider-next" viewBox="0 0 25 25" fill="none" xmlns="http://www.w3.org/2000/svg"><path d="M9.086 18.5l6-6-6-6" stroke="#292D32" stroke-width="1.5" stroke-linecap="round" stroke-linejoin="round"/></symbol>
<symbol id="i-slider-prev" viewBox="0 0 25 25" fill="none" xmlns="http://www.w3.org/2000/svg"><path d="M15.086 6.5l-6 6 6 6" stroke="#292D32" stroke-width="1.5" stroke-linecap="round" stroke-linejoin="round"/></symbol>
</svg>